<?xml version="1.0" encoding="UTF-8" standalone="no"?>
<!DOCTYPE svg PUBLIC "-//W3C//DTD SVG 1.1//EN"
"http://www.w3.org/Graphics/SVG/1.1/DTD/svg11.dtd">
<svg viewBox="0 0 909 1286" version="1.1" xmlns="http://www.w3.org/2000/svg" xmlns:xlink="http://www.w3.org/1999/xlink">
<defs>
<style type="text/css"><![CDATA[
.g0{
fill: #FFFFFF;
}
.g1{
fill: none;
stroke: #E6E6E6;
stroke-width: 1.527;
stroke-linecap: butt;
stroke-linejoin: miter;
}
.g2{
fill: #D1CDCD;
}
.g3{
fill: none;
stroke: #FFFFFF;
stroke-width: 0.763;
stroke-linecap: butt;
stroke-linejoin: miter;
}
.g4{
fill: none;
stroke: #FFFFFF;
stroke-width: 1.527;
stroke-linecap: butt;
stroke-linejoin: miter;
}
.g5{
fill: none;
stroke: #000000;
stroke-width: 1.527;
stroke-linecap: square;
stroke-linejoin: miter;
}
.g6{
fill: none;
stroke: #FFFFFF;
stroke-width: 1.527;
stroke-linecap: square;
stroke-linejoin: miter;
}
.g7{
fill: none;
stroke: #FFFFFF;
stroke-width: 0.458;
stroke-linecap: square;
stroke-linejoin: miter;
}
.g8{
fill: none;
stroke: #000000;
stroke-width: 0.763;
stroke-linecap: square;
stroke-linejoin: miter;
}
.g9{
fill: none;
stroke: #000000;
stroke-width: 0.458;
stroke-linecap: square;
stroke-linejoin: miter;
}
]]></style>
</defs>
<path d="M33.6,490.4h63V450.7h-63v39.7Z" class="g0"/>
<path d="M96.6,490.4H474.2V450.7H96.6v39.7Z" class="g0"/>
<path d="M474.2,490.4h78.7V450.7H474.2v39.7Z" class="g0"/>
<path d="M552.9,490.4h55V450.7h-55v39.7Z" class="g0"/>
<path d="M607.9,490.4h70.8V450.7H607.9v39.7Z" class="g0"/>
<path d="M678.7,490.4h55.1V450.7H678.7v39.7Z" class="g0"/>
<path d="M733.8,490.4h63V450.7h-63v39.7Z" class="g0"/>
<path d="M796.7,490.4h78.7V450.7H796.7v39.7Z" class="g0"/>
<path d="M33.6,530.1h63V490.4h-63v39.7Z" class="g0"/>
<path d="M96.6,530.1H474.2V490.4H96.6v39.7Z" class="g0"/>
<path d="M474.2,530.1h78.7V490.4H474.2v39.7Z" class="g0"/>
<path d="M552.9,530.1h55V490.4h-55v39.7Z" class="g0"/>
<path d="M607.9,530.1h70.8V490.4H607.9v39.7Z" class="g0"/>
<path d="M678.7,530.1h55.1V490.4H678.7v39.7Z" class="g0"/>
<path d="M733.8,530.1h63V490.4h-63v39.7Z" class="g0"/>
<path d="M796.7,530.1h78.7V490.4H796.7v39.7Z" class="g0"/>
<path d="M33.6,563.8h63V530.1h-63v33.7Z" class="g0"/>
<path d="M96.6,563.8H474.2V530.1H96.6v33.7Z" class="g0"/>
<path d="M474.2,563.8h78.7V530.1H474.2v33.7Z" class="g0"/>
<path d="M552.9,563.8h55V530.1h-55v33.7Z" class="g0"/>
<path d="M607.9,563.8h70.8V530.1H607.9v33.7Z" class="g0"/>
<path d="M678.7,563.8h55.1V530.1H678.7v33.7Z" class="g0"/>
<path d="M733.8,563.8h63V530.1h-63v33.7Z" class="g0"/>
<path d="M796.7,563.8h78.7V530.1H796.7v33.7Z" class="g0"/>
<path d="M96.6,489.7h-63m.8,-39v39.7m439.8,-.7H96.6m.7,-39v39.7m455.6,-.7H474.2m.7,-39v39.7m133,-.7h-55m.7,-39v39.7m125.1,-.7H607.9m.8,-39v39.7m125.1,-.7H678.7m.8,-39v39.7m117.2,-.7H733.8m.8,-39v39.7m140.8,-.7H796.7m78,-39v39.7M797.5,450.7v39.7m-700.9,39h-63m.8,-39v39.7m439.8,-.7H96.6m.7,-39v39.7m455.6,-.7H474.2m.7,-39v39.7m133,-.7h-55m.7,-39v39.7m125.1,-.7H607.9m.8,-39v39.7m125.1,-.7H678.7m.8,-39v39.7m117.2,-.7H733.8m.8,-39v39.7m140.8,-.7H796.7m78,-39v39.7M797.5,490.4v39.7M96.6,563h-63m.8,-32.9v33.7M474.2,563H96.6m.7,-32.9v33.7M552.9,563H474.2m.7,-32.9v33.7m133,-.8h-55m.7,-32.9v33.7M678.7,563H607.9m.8,-32.9v33.7M733.8,563H678.7m.8,-32.9v33.7M796.7,563H733.8m.8,-32.9v33.7M875.4,563H796.7m78,-32.9v33.7M797.5,530.1v33.7" class="g1"/>
<path d="M33.6,445h63V397.6h-63V445Z" class="g2"/>
<path d="M96.6,445H474.2V397.6H96.6V445Z" class="g2"/>
<path d="M474.2,445h78.7V397.6H474.2V445Z" class="g2"/>
<path d="M552.9,445h55V397.6h-55V445Z" class="g2"/>
<path d="M607.9,445h70.8V397.6H607.9V445Z" class="g2"/>
<path d="M678.7,445h55.1V397.6H678.7V445Z" class="g2"/>
<path d="M733.8,445h63V397.6h-63V445Z" class="g2"/>
<path d="M796.7,445h78.7V397.6H796.7V445Z" class="g2"/>
<path d="M665,138.3H875.4" class="g3"/>
<path d="M875.4,170.8H665" class="g4"/>
<path d="M875,137.9v33.6M665.3,137.9v33.6" class="g3"/>
<path d="M674.1,171.5H866.3c5.9,0,10.6,-4.8,10.6,-10.7V148.6c0,-5.9,-4.7,-10.7,-10.6,-10.7H674.1c-5.9,0,-10.7,4.8,-10.7,10.7v12.2c0,5.9,4.8,10.7,10.7,10.7M45.8,364H316c5.9,0,10.7,-4.8,10.7,-10.7V191.4c0,-5.9,-4.8,-10.7,-10.7,-10.7H45.8c-5.9,0,-10.7,4.8,-10.7,10.7V353.3c0,5.9,4.8,10.7,10.7,10.7M340.5,270.8H568.6c5.9,0,10.7,-4.8,10.7,-10.7V243.3c0,-5.9,-4.8,-10.7,-10.7,-10.7H340.5c-5.9,0,-10.7,4.8,-10.7,10.7v16.8c0,5.9,4.8,10.7,10.7,10.7" class="g5"/>
<path d="M586.9,214.3H869.3V186.8H586.9v27.5Zm0,27.5H869.3V214.3H586.9v27.5Zm0,27.5H869.3V241.8H586.9v27.5Zm0,27.5H869.3V269.3H586.9v27.5Z" class="g6"/>
<path d="M593,302.9H863.2c5.9,0,10.7,-4.8,10.7,-10.7V191.4c0,-5.9,-4.8,-10.7,-10.7,-10.7H593c-5.9,0,-10.7,4.8,-10.7,10.7V292.2c0,5.9,4.8,10.7,10.7,10.7" class="g5"/>
<path d="M33.6,445h63V397.6h-63V445Zm63,0H474.2V397.6H96.6V445Zm377.6,0h78.7V397.6H474.2V445Zm78.7,0h55V397.6h-55V445Zm55,0h70.8V397.6H607.9V445Zm70.8,0h55.1V397.6H678.7V445Zm55.1,0h63V397.6h-63V445Zm62.9,0h78.7V397.6H796.7V445Z" class="g7"/>
<image preserveAspectRatio="none" x="31" y="18" width="847" height="111" xlink:href="img/1.jpg"/>
<path d="M702.3,1002.2H875.4v-29H702.3v29Z" class="g2"/>
<path d="M33.6,1037.4h666v-29.1H33.6v29.1Z" class="g2"/>
<path d="M699.6,1037.4H875.4v-29.1H699.6v29.1Z" class="g2"/>
<path d="M33.6,956.4h236V933.5H33.6v22.9Zm236,0h78.7V933.5H269.6v22.9Zm78.7,0H489.9V933.5H348.3v22.9Zm141.6,0H702.3V933.5H489.9v22.9Zm212.4,0H875.4V933.5H702.3v22.9ZM33.6,973.2h236V956.4H33.6v16.8Zm236,0h78.7V956.4H269.6v16.8Zm78.7,0H489.9V956.4H348.3v16.8Zm141.6,0H702.3V956.4H489.9v16.8Zm212.4,0H875.4V956.4H702.3v16.8Zm-668.7,29h236v-29H33.6v29Zm236,0h78.7v-29H269.6v29Zm78.7,0H489.9v-29H348.3v29Zm141.6,0H702.3v-29H489.9v29Zm212.4,0H875.4v-29H702.3v29ZM33.6,1037.4h666v-29.1H33.6v29.1Zm666,0H875.4v-29.1H699.6v29.1Z" class="g8"/>
<path d="M33.6,1067.9H219.8v-24.4H33.6v24.4Zm186.2,0H331.6v-24.4H219.8v24.4Zm111.8,0H502.9v-24.4H331.6v24.4Zm171.3,27.5H689.2v-51.9H502.9v51.9Zm186.3,0H875.4v-51.9H689.2v51.9Zm-655.6,0H219.8v-27.5H33.6v27.5Zm186.2,0H331.6v-27.5H219.8v27.5Zm111.8,0H502.9v-27.5H331.6v27.5Z" class="g9"/>
<image preserveAspectRatio="none" x="316" y="1108" width="69" height="68" xlink:href="img/2.jpg"/>
<image preserveAspectRatio="none" x="685" y="1108" width="153" height="71" xlink:href="img/3.jpg"/>
<image preserveAspectRatio="none" x="8" y="1213" width="893" height="69" xlink:href="img/4.jpg"/>
</svg>